<svg width="246" height="25" viewBox="0 0 984 105" fill="none" xmlns="http://www.w3.org/2000/svg">
<path d="M82.3191 18.0662H160.377V34.529H129.63V104.996H112.953V34.529H82.3191V18.0662Z" fill="white"/>
<path d="M253.513 18.0662V73.9608C253.513 96.5808 245.175 104.996 222.713 104.996H200.01C177.531 104.996 169.193 96.5808 169.193 73.9608V18.0662H185.869V76.735C185.869 86.2038 188.186 88.5361 197.698 88.5361H225.139C234.541 88.5361 236.84 86.2073 236.84 76.735V18.0662H253.513Z" fill="white"/>
<path d="M79.3802 78.177V79.5087C79.3802 97.3749 70.1614 104.996 48.5626 104.996H0V88.5326H50.875C62.7036 88.5326 62.7036 83.8535 62.7036 81.0614V76.5105C62.7036 73.5692 62.7036 69.1496 50.875 69.1496H29.6085C10.1594 69.1496 1.10329 61.401 1.10329 44.7743V42.4453C1.10329 25.5765 10.5979 18.0662 31.9211 18.0662H73.8707V34.529H29.6085C17.78 34.529 17.78 39.1513 17.78 40.8926V46.4407C17.78 48.3106 17.78 52.6939 29.6085 52.6939H50.875C70.3064 52.6939 79.3802 60.792 79.3802 78.177Z" fill="white"/>
<path d="M322.164 18.0662H263.814V104.996H322.164C344.644 104.996 352.982 96.5808 352.982 73.9608V49.1007C352.982 26.481 344.644 18.0662 322.164 18.0662ZM324.477 88.5326H280.491V34.529H324.477C333.88 34.529 336.306 36.9719 336.306 46.4407V76.7385C336.306 86.2073 333.989 88.5396 324.477 88.5396V88.5326Z" fill="white"/>
<path d="M541.213 18.0662H518.845C496.362 18.0662 488.024 26.481 488.024 49.1007V104.996H504.704V77.2512H555.358V104.996H572.033V49.1007C572.033 26.481 563.674 18.0662 541.213 18.0662ZM504.704 46.4372C504.704 36.9683 507.129 34.5254 516.53 34.5254H543.638C553.043 34.5254 555.358 36.8544 555.358 46.4372V60.7885H504.704V46.4372Z" fill="white"/>
<path d="M605.608 18.0662H588.928V104.996H605.608V18.0662Z" fill="white"/>
<path d="M456.717 17.3291L438.073 61.8673C436.401 65.8451 432.525 68.4342 428.246 68.4342H413.479V104.999H396.803V68.4342H382.937C378.659 68.4342 374.783 65.8451 373.11 61.8673L354.468 17.3291H372.559L386.94 51.6399H424.243L438.625 17.3291H456.717Z" fill="white"/>
<path d="M747.357 56.0918V79.9299C747.185 79.9762 747.01 80.0187 746.834 80.065C736.906 82.6292 726.846 84.6802 716.831 86.9202C704.689 89.6371 693.483 93.9854 685.778 104.597C685.69 104.719 685.47 104.744 684.908 105C681.126 99.6725 676.32 95.6199 670.561 92.6747C662.465 88.5333 653.648 86.8559 644.889 84.99C637.628 83.4447 630.349 81.9594 623.193 80.0471V56.206C630.349 58.1183 637.628 59.6032 644.889 61.1524C653.644 63.0183 662.465 64.6992 670.561 68.837C676.32 71.7784 681.126 75.8344 684.908 81.1619C685.475 80.9055 685.69 80.8805 685.778 80.7594C693.483 70.1404 704.689 65.7995 716.831 63.0822C726.846 60.8426 736.906 58.7947 746.834 56.2274C747.01 56.1775 747.185 56.1382 747.357 56.0918Z" fill="white"/>
<path d="M722.862 12.6895C722.845 12.9851 722.594 13.2059 722.208 13.2807C721.94 13.3305 721.676 13.3839 721.408 13.4373C721.074 13.5014 720.736 13.5549 720.402 13.6403C719.923 13.7614 719.453 13.8967 718.979 14.0392C718.649 14.1389 718.324 14.2635 717.995 14.3775C717.398 14.5876 716.831 14.8689 716.299 15.2108C715.68 15.6096 715.1 16.0725 714.661 16.6744C714.349 17.1017 714.05 17.5433 713.809 18.0133C713.532 18.5475 713.303 19.1066 713.097 19.6728C712.943 20.1037 712.838 20.5524 712.724 20.9975C712.583 21.553 712.456 22.1121 712.324 22.6748C712.262 22.9632 712.218 23.2588 712.148 23.5472C712.073 23.8499 711.871 23.9959 711.555 23.9924C711.204 24.0315 710.975 23.6719 710.922 23.4119C710.786 22.7175 710.641 22.0231 710.488 21.3358C710.382 20.8657 710.259 20.3957 710.123 19.9327C710.013 19.5731 709.877 19.2241 709.732 18.8787C709.587 18.5297 709.416 18.1878 709.249 17.8459C708.924 17.1836 708.476 16.6067 707.953 16.0939C707.333 15.4885 706.617 15.0327 705.835 14.6695C705.146 14.349 704.439 14.0997 703.705 13.8932C703.191 13.7507 702.673 13.6118 702.154 13.4908C701.794 13.4089 701.429 13.3661 701.069 13.2985C700.902 13.2664 700.74 13.2273 700.586 13.1596C700.362 13.0634 700.279 12.8676 700.274 12.6326C700.274 12.3904 700.331 12.1767 700.573 12.0806C700.731 12.0129 700.902 11.9702 701.069 11.9346C701.715 11.7886 702.356 11.6497 703.007 11.5072C703.2 11.4645 703.393 11.4253 703.586 11.3684C704.149 11.1939 704.715 11.0443 705.26 10.8235C705.748 10.6241 706.204 10.3535 706.67 10.1042C707.333 9.75163 707.883 9.25664 708.375 8.69401C708.792 8.21683 709.13 7.68265 709.389 7.09863C709.578 6.682 709.776 6.26891 709.943 5.8416C710.079 5.48902 710.176 5.11868 710.277 4.75188C710.378 4.41001 710.474 4.0646 710.558 3.71918C710.619 3.48059 710.668 3.23488 710.712 2.98916C710.786 2.60457 710.852 2.21285 710.918 1.82825C710.966 1.56473 711.094 1.35463 711.349 1.26916C711.599 1.18726 711.88 1.20506 712.034 1.44722C712.152 1.63239 712.201 1.87098 712.254 2.09177C712.355 2.55115 712.434 3.01765 712.535 3.47703C712.644 3.95777 712.759 4.44208 712.895 4.91926C713.009 5.31455 713.15 5.69915 713.29 6.08371C713.396 6.36507 713.523 6.64284 713.642 6.91702C713.927 7.56159 714.296 8.1527 714.757 8.68688C715.381 9.41689 716.128 9.99378 716.993 10.4033C717.481 10.6312 717.982 10.8342 718.487 11.0265C719.221 11.3078 719.981 11.5037 720.758 11.6533C721.25 11.7494 721.746 11.8598 722.243 11.9559C722.665 12.0378 722.88 12.2871 722.862 12.6895Z" fill="white"/>
<path d="M674.646 8.05328C674.638 8.25982 674.462 8.41654 674.185 8.46637C673.996 8.50198 673.812 8.53759 673.627 8.57679C673.39 8.62308 673.153 8.65869 672.92 8.7192C672.582 8.80469 672.252 8.90085 671.923 9.00056C671.69 9.07178 671.457 9.15722 671.229 9.23913C670.807 9.38871 670.412 9.58457 670.038 9.82673C669.599 10.108 669.195 10.4321 668.883 10.8559C668.663 11.155 668.457 11.4684 668.285 11.796C668.092 12.1699 667.934 12.5652 667.789 12.9605C667.679 13.2632 667.609 13.5801 667.53 13.8899C667.429 14.2816 667.337 14.6733 667.249 15.0686C667.205 15.2716 667.174 15.4781 667.126 15.6811C667.077 15.8948 666.928 15.9981 666.708 15.9945C666.467 16.023 666.304 15.7701 666.269 15.5885C666.168 15.1007 666.071 14.6128 665.962 14.1285C665.887 13.7973 665.803 13.4661 665.707 13.1421C665.632 12.8892 665.531 12.6435 665.43 12.4014C665.325 12.1557 665.21 11.9171 665.092 11.6784C664.859 11.212 664.547 10.8096 664.178 10.4463C663.743 10.019 663.238 9.70209 662.693 9.44567C662.206 9.22132 661.709 9.04326 661.195 8.90085C660.835 8.80114 660.471 8.70139 660.106 8.61949C659.856 8.56253 659.601 8.53405 659.346 8.48417C659.232 8.46282 659.113 8.43434 659.008 8.38806C658.854 8.32037 658.792 8.18151 658.788 8.01767C658.788 7.84674 658.828 7.6972 658.999 7.62952C659.109 7.58323 659.227 7.55475 659.346 7.52627C659.798 7.42297 660.251 7.32686 660.703 7.22715C660.84 7.19862 660.976 7.17014 661.112 7.1274C661.503 7.00634 661.907 6.89951 662.289 6.74284C662.632 6.60393 662.953 6.41165 663.278 6.23713C663.743 5.98789 664.13 5.64244 664.472 5.24716C664.767 4.91243 665.008 4.53495 665.193 4.12544C665.325 3.83343 665.465 3.54142 665.579 3.24229C665.676 2.99302 665.742 2.73306 665.817 2.47666C665.887 2.23451 665.953 1.99591 666.014 1.7502C666.058 1.58283 666.093 1.40834 666.124 1.23741C666.177 0.966766 666.221 0.692562 666.269 0.421922C666.304 0.236747 666.397 0.0871815 666.572 0.0302043C666.752 -0.0267728 666.946 -0.0125285 667.051 0.154842C667.139 0.286601 667.17 0.450411 667.205 0.607097C667.279 0.931158 667.332 1.25877 667.402 1.57927C667.482 1.91757 667.561 2.25587 667.657 2.59062C667.736 2.86838 667.837 3.13902 667.938 3.40966C668.009 3.60908 668.101 3.80138 668.184 3.99724C668.386 4.44951 668.646 4.86614 668.966 5.24007C669.406 5.75286 669.928 6.15882 670.535 6.44367C670.877 6.60393 671.233 6.74638 671.584 6.8817C672.103 7.08111 672.634 7.21643 673.179 7.32327C673.531 7.39095 673.873 7.46926 674.225 7.5334C674.519 7.59036 674.673 7.76484 674.659 8.04619L674.646 8.05328Z" fill="white"/>
<path d="M704.109 36.2963C704.078 36.7878 703.657 37.1581 703.007 37.2791C702.567 37.361 702.124 37.4501 701.68 37.5391C701.118 37.6495 700.555 37.735 699.997 37.8774C699.202 38.0768 698.412 38.3047 697.63 38.5434C697.076 38.7107 696.532 38.9172 695.982 39.1096C694.985 39.4621 694.045 39.9321 693.158 40.5019C692.117 41.1679 691.155 41.937 690.421 42.9448C689.907 43.657 689.406 44.3944 689.002 45.1775C688.541 46.0643 688.159 47.0045 687.812 47.9447C687.553 48.6604 687.386 49.4116 687.197 50.1523C686.964 51.082 686.744 52.0148 686.533 52.948C686.424 53.4323 686.353 53.9201 686.239 54.4009C686.12 54.9066 685.773 55.1486 685.246 55.1451C684.666 55.2129 684.275 54.6109 684.192 54.1764C683.959 53.0193 683.726 51.8616 683.467 50.7114C683.291 49.9244 683.094 49.1448 682.861 48.3717C682.676 47.7736 682.448 47.1896 682.206 46.6164C681.965 46.0324 681.684 45.4623 681.407 44.8962C680.862 43.7924 680.12 42.8309 679.241 41.9762C678.213 40.9649 677.018 40.2064 675.714 39.601C674.567 39.0633 673.377 38.6466 672.16 38.3047C671.308 38.0626 670.442 37.8347 669.573 37.6353C668.98 37.4964 668.369 37.4287 667.771 37.3112C667.495 37.2578 667.218 37.1901 666.963 37.0833C666.594 36.9266 666.449 36.5954 666.445 36.2037C666.436 35.8013 666.541 35.4452 666.937 35.2814C667.205 35.171 667.486 35.0998 667.771 35.0357C668.843 34.7935 669.92 34.5621 670.996 34.3235C671.316 34.2523 671.646 34.1882 671.962 34.0885C672.898 33.8 673.847 33.5471 674.756 33.1804C675.569 32.8492 676.333 32.3969 677.111 31.9838C678.213 31.3963 679.131 30.5701 679.948 29.63C680.647 28.8323 681.209 27.942 681.649 26.9699C681.965 26.2755 682.294 25.5846 682.571 24.8724C682.795 24.2812 682.953 23.6652 683.129 23.0562C683.296 22.4865 683.454 21.9096 683.599 21.3363C683.696 20.9374 683.779 20.5279 683.858 20.1219C683.977 19.4774 684.087 18.8292 684.196 18.1847C684.275 17.7467 684.486 17.3941 684.912 17.2553C685.338 17.1164 685.8 17.152 686.055 17.5544C686.252 17.8642 686.336 18.2595 686.419 18.6298C686.595 19.3955 686.722 20.1718 686.894 20.941C687.074 21.7458 687.267 22.5506 687.5 23.3447C687.684 23.9999 687.922 24.6445 688.159 25.2855C688.334 25.7555 688.541 26.2149 688.747 26.6779C689.222 27.7533 689.841 28.7397 690.601 29.63C691.647 30.8479 692.89 31.8094 694.335 32.4895C695.148 32.8706 695.987 33.2089 696.821 33.5293C698.051 33.9994 699.321 34.327 700.612 34.5763C701.438 34.7366 702.26 34.9182 703.086 35.0784C703.793 35.2138 704.153 35.6304 704.114 36.2999L704.109 36.2963Z" fill="white"/>
<path d="M812.248 86.8525H795.643L792.322 96.25H787.42L801.336 58.7125H806.608L820.472 96.25H815.569L812.248 86.8525ZM797.225 82.6525H810.719L804.025 63.07H803.919L797.225 82.6525ZM834.485 62.3875C830.9 62.125 829.371 62.65 829.371 65.695V69.475H834.485V73.15H829.371V96.25H825.154V73.15H821.412V69.475H825.154V65.275C825.154 59.815 827.895 58.3975 831.48 58.3975C832.429 58.3975 833.536 58.5025 834.485 58.7125V62.3875ZM849.416 62.3875C845.832 62.125 844.303 62.65 844.303 65.695V69.475H849.416V73.15H844.303V96.25H840.086V73.15H836.343V69.475H840.086V65.275C840.086 59.815 842.827 58.3975 846.411 58.3975C847.36 58.3975 848.467 58.5025 849.416 58.7125V62.3875ZM856.159 64.2775C854.999 64.2775 853.523 63.385 853.523 61.7575C853.523 60.13 854.999 59.2375 856.159 59.2375C857.372 59.2375 858.795 60.13 858.795 61.7575C858.795 63.385 857.372 64.2775 856.159 64.2775ZM854.051 69.475H858.268V96.25H854.051V69.475ZM864.238 58.7125H868.455V96.25H864.238V58.7125ZM876.546 64.2775C875.387 64.2775 873.911 63.385 873.911 61.7575C873.911 60.13 875.387 59.2375 876.546 59.2375C877.759 59.2375 879.182 60.13 879.182 61.7575C879.182 63.385 877.759 64.2775 876.546 64.2775ZM874.438 69.475H878.655V96.25H874.438V69.475ZM901.423 76.3C901.423 74.2 900.263 72.415 895.941 72.415C890.828 72.415 889.141 73.885 888.877 77.77H884.66C884.924 72.625 888.139 68.74 895.941 68.74C901.054 68.74 905.64 70.735 905.64 77.1925V90.2125C905.64 92.3125 906.009 93.4675 908.698 93.1525V96.0925C907.591 96.46 907.011 96.5125 906.22 96.5125C903.69 96.5125 902.161 95.83 901.423 92.89H901.318C899.631 95.41 896.626 96.985 892.198 96.985C886.769 96.985 883.342 93.8875 883.342 89.3725C883.342 83.2825 887.876 81.7075 894.834 80.395C899.367 79.555 901.423 78.9775 901.423 76.3ZM892.62 93.31C897.628 93.31 901.423 91.0525 901.423 85.9075V81.445C900.632 82.2325 898.049 82.9675 895.203 83.545C889.984 84.6475 887.559 85.96 887.559 89.1625C887.559 91.7875 889.141 93.31 892.62 93.31ZM923.036 73.15H917.765V89.2675C917.765 92.3125 919.451 92.8375 923.036 92.575V96.25C922.087 96.46 920.98 96.565 919.873 96.565C916.288 96.565 913.547 95.1475 913.547 89.6875V73.15H909.594V69.475H913.547V60.55H917.765V69.475H923.036V73.15ZM938.631 93.31C944.007 93.31 946.011 89.845 946.485 88.0075H950.702C949.332 92.995 945.483 96.985 938.789 96.985C930.618 96.985 925.663 91.2625 925.663 82.8625C925.663 73.9375 930.723 68.74 938.578 68.74C947.012 68.74 951.124 74.4625 951.124 83.965H929.88C929.88 88.795 932.779 93.31 938.631 93.31ZM938.578 72.415C933.517 72.415 929.88 75.985 929.88 80.29H946.907C946.907 75.985 943.638 72.415 938.578 72.415ZM966.209 80.3425C971.006 81.4975 976.436 82.285 976.436 88.9C976.436 93.7825 971.955 96.985 965.84 96.985C957.617 96.985 953.821 93.1 953.558 87.325H957.775C958.038 90.3175 959.093 93.31 965.84 93.31C970.426 93.31 972.218 90.9475 972.218 89.1625C972.218 85.2775 968.687 85.0675 964.838 84.1225C960.727 83.125 954.612 82.6525 954.612 76.3525C954.612 72.1525 958.355 68.74 964.68 68.74C971.375 68.74 974.96 72.52 975.381 77.14H971.164C970.742 75.0925 969.741 72.415 964.68 72.415C960.885 72.415 958.829 73.9375 958.829 76.0375C958.829 79.1875 962.466 79.45 966.209 80.3425Z" fill="white"/>
</svg>
