<svg width="457" height="67" viewBox="0 0 457 67" fill="none" xmlns="http://www.w3.org/2000/svg">
<g clip-path="url(#clip0_5004_26892)">
<path d="M366.052 -51.1896L380.786 -51.4849C380.819 -51.2415 380.851 -50.9916 380.884 -50.7482C382.749 -36.7916 384.301 -22.6478 385.968 -8.56946C387.99 8.49484 390.993 24.2328 397.771 34.9538C397.849 35.0718 397.871 35.3788 398.045 36.1708C394.859 41.5658 392.49 48.3848 390.832 56.5358C388.501 67.9888 387.713 80.4318 386.806 92.7908C386.056 103.035 385.343 113.302 384.363 123.407L369.626 123.703C370.606 113.598 371.319 103.33 372.071 93.0858C372.978 80.7268 373.767 68.2838 376.097 56.8318C377.753 48.6808 380.125 41.8608 383.31 36.4658C383.137 35.6738 383.114 35.3678 383.037 35.2488C376.255 24.5308 373.255 8.79283 371.233 -8.27417C369.567 -22.3525 368.016 -36.4985 366.149 -50.4529C366.114 -50.6963 366.084 -50.9462 366.052 -51.1896Z" fill="white" fill-opacity="0.2"/>
<path d="M-4.89746 -53.8546L9.83714 -54.1499C9.86994 -53.9066 9.90184 -53.6566 9.93464 -53.4133C11.8002 -39.4566 13.3517 -25.3128 15.0185 -11.2345C17.0406 5.8298 20.0443 21.5678 26.8221 32.2888C26.8995 32.4068 26.9221 32.7138 27.0958 33.5058C23.91 38.9008 21.5413 45.7198 19.8829 53.8708C17.5522 65.3238 16.7636 77.7668 15.8568 90.1258C15.1069 100.37 14.3941 110.637 13.4142 120.742L-1.32316 121.038C-0.34326 110.933 0.369539 100.665 1.12234 90.4208C2.02914 78.0618 2.81764 65.6188 5.14844 54.1668C6.80394 46.0148 9.17554 39.1958 12.3613 33.8008C12.1875 33.0088 12.165 32.7028 12.0875 32.5838C5.30604 21.8658 2.30614 6.12779 0.283939 -10.9392C-1.38186 -25.0176 -2.93336 -39.1635 -4.79986 -53.118C-4.83556 -53.3613 -4.86466 -53.6113 -4.89746 -53.8546Z" fill="white" fill-opacity="0.2"/>
<path d="M21.1025 -52.8546L35.8371 -53.1499C35.8699 -52.9066 35.9018 -52.6566 35.9346 -52.4133C37.8002 -38.4566 39.3517 -24.3128 41.0185 -10.2345C43.0406 6.8298 46.0443 22.5678 52.8221 33.2888C52.8995 33.4068 52.9221 33.7138 53.0958 34.5058C49.91 39.9008 47.5413 46.7198 45.8829 54.8708C43.5522 66.3238 42.7636 78.7668 41.8568 91.1258C41.1069 101.37 40.3941 111.637 39.4142 121.742L24.6768 122.038C25.6567 111.933 26.3695 101.665 27.1223 91.4208C28.0291 79.0618 28.8176 66.6188 31.1484 55.1668C32.8039 47.0148 35.1755 40.1958 38.3613 34.8008C38.1875 34.0088 38.165 33.7028 38.0875 33.5838C31.306 22.8658 28.3061 7.12779 26.2839 -9.93921C24.6181 -24.0176 23.0666 -38.1635 21.2001 -52.118C21.1644 -52.3613 21.1353 -52.6113 21.1025 -52.8546Z" fill="white" fill-opacity="0.2"/>
<path d="M395.118 -51.8815L409.853 -52.1768C409.885 -51.9334 409.917 -51.6835 409.95 -51.4401C411.816 -37.4835 413.367 -23.3397 415.034 -9.26136C417.056 7.80384 420.06 23.5408 426.838 34.2618C426.915 34.3808 426.938 34.6869 427.111 35.4789C423.926 40.8738 421.557 47.6928 419.898 55.8438C417.568 67.2968 416.779 79.7399 415.872 92.0988C415.122 102.343 414.41 112.61 413.43 122.715L398.692 123.011C399.672 112.906 400.385 102.638 401.138 92.3938C402.045 80.0358 402.833 67.5918 405.164 56.1398C406.819 47.9888 409.191 41.1698 412.377 35.7738C412.203 34.9828 412.181 34.6758 412.103 34.5578C405.322 23.8388 402.322 8.10085 400.299 -8.96605C398.634 -23.0444 397.082 -37.1904 395.216 -51.1448C395.18 -51.3881 395.151 -51.6381 395.118 -51.8815Z" fill="white"/>
<path d="M422.044 -51.9845L436.778 -52.2798C436.811 -52.0364 436.843 -51.7865 436.876 -51.5432C438.741 -37.5865 440.293 -23.4427 441.96 -9.36438C443.982 7.70082 446.986 23.4378 453.763 34.1588C453.841 34.2778 453.863 34.5838 454.037 35.3758C450.851 40.7708 448.483 47.5898 446.824 55.7408C444.493 67.1938 443.705 79.6368 442.798 91.9958C442.048 102.24 441.335 112.507 440.356 122.612L425.618 122.908C426.598 112.803 427.311 102.535 428.064 92.2908C428.97 79.9328 429.759 67.4888 432.09 56.0368C433.745 47.8858 436.117 41.0668 439.303 35.6708C439.129 34.8798 439.106 34.5728 439.029 34.4548C432.247 23.7358 429.247 7.99781 427.225 -9.06909C425.559 -23.1474 424.008 -37.2934 422.141 -51.2479C422.106 -51.4912 422.077 -51.7411 422.044 -51.9845Z" fill="white" fill-opacity="0.2"/>
<path d="M447.366 -51.3541L462.101 -51.6494C462.133 -51.4061 462.165 -51.1561 462.198 -50.9128C464.064 -36.9561 465.615 -22.8123 467.282 -8.73402C469.304 8.33078 472.308 24.0688 479.086 34.7898C479.163 34.9078 479.186 35.2148 479.359 36.0058C476.174 41.4018 473.805 48.2208 472.146 56.3718C469.816 67.8238 469.027 80.2678 468.12 92.6258C467.371 102.87 466.658 113.138 465.678 123.243L450.94 123.538C451.92 113.433 452.633 103.166 453.386 92.9208C454.293 80.5628 455.081 68.1198 457.412 56.6668C459.067 48.5158 461.439 41.6968 464.625 36.3018C464.451 35.5098 464.429 35.2028 464.351 35.0848C457.57 24.3658 454.57 8.62779 452.547 -8.43881C450.882 -22.5171 449.33 -36.663 447.464 -50.6175C447.428 -50.8608 447.399 -51.1108 447.366 -51.3541Z" fill="white"/>
</g>
<defs>
<clipPath id="clip0_5004_26892">
<rect width="457" height="67" fill="white"/>
</clipPath>
</defs>
</svg>
